<?xml version="1.0" encoding="utf-8" ?>
<svg baseProfile="full" height="310mm" version="1.1" width="260mm" xmlns="http://www.w3.org/2000/svg" xmlns:ev="http://www.w3.org/2001/xml-events" xmlns:xlink="http://www.w3.org/1999/xlink"><defs /><line stroke="black" stroke-width="1" x1="9.6mm" x2="9.521690426072245mm" y1="23.0mm" y2="23.494427190999915mm" /><line stroke="black" stroke-width="1" x1="9.521690426072245mm" x2="9.294427190999915mm" y1="23.494427190999915mm" y2="23.94045640366796mm" /><line stroke="black" stroke-width="1" x1="9.294427190999915mm" x2="8.940456403667957mm" y1="23.94045640366796mm" y2="24.294427190999915mm" /><line stroke="black" stroke-width="1" x1="8.940456403667957mm" x2="8.494427190999916mm" y1="24.294427190999915mm" y2="24.521690426072247mm" /><line stroke="black" stroke-width="1" x1="8.494427190999916mm" x2="8.0mm" y1="24.521690426072247mm" y2="24.6mm" /><line stroke="black" stroke-width="1" x1="8.0mm" x2="7.505572809000085mm" y1="24.6mm" y2="24.521690426072247mm" /><line stroke="black" stroke-width="1" x1="7.505572809000085mm" x2="7.059543596332043mm" y1="24.521690426072247mm" y2="24.294427190999915mm" /><line stroke="black" stroke-width="1" x1="7.059543596332043mm" x2="6.705572809000084mm" y1="24.294427190999915mm" y2="23.94045640366796mm" /><line stroke="black" stroke-width="1" x1="6.705572809000084mm" x2="6.4783095739277545mm" y1="23.94045640366796mm" y2="23.494427190999915mm" /><line stroke="black" stroke-width="1" x1="6.4783095739277545mm" x2="6.4mm" y1="23.494427190999915mm" y2="23.0mm" /><line stroke="black" stroke-width="1" x1="6.4mm" x2="6.4783095739277545mm" y1="23.0mm" y2="22.505572809000085mm" /><line stroke="black" stroke-width="1" x1="6.4783095739277545mm" x2="6.705572809000084mm" y1="22.505572809000085mm" y2="22.059543596332045mm" /><line stroke="black" stroke-width="1" x1="6.705572809000084mm" x2="7.059543596332043mm" y1="22.059543596332045mm" y2="21.705572809000085mm" /><line stroke="black" stroke-width="1" x1="7.059543596332043mm" x2="7.505572809000084mm" y1="21.705572809000085mm" y2="21.478309573927753mm" /><line stroke="black" stroke-width="1" x1="7.505572809000084mm" x2="8.0mm" y1="21.478309573927753mm" y2="21.4mm" /><line stroke="black" stroke-width="1" x1="8.0mm" x2="8.494427190999916mm" y1="21.4mm" y2="21.478309573927753mm" /><line stroke="black" stroke-width="1" x1="8.494427190999916mm" x2="8.940456403667957mm" y1="21.478309573927753mm" y2="21.705572809000085mm" /><line stroke="black" stroke-width="1" x1="8.940456403667957mm" x2="9.294427190999915mm" y1="21.705572809000085mm" y2="22.05954359633204mm" /><line stroke="black" stroke-width="1" x1="9.294427190999915mm" x2="9.521690426072245mm" y1="22.05954359633204mm" y2="22.505572809000085mm" /><line stroke="black" stroke-width="1" x1="9.521690426072245mm" x2="9.6mm" y1="22.505572809000085mm" y2="23.0mm" /><line stroke="black" stroke-width="1" x1="18.840000000000003mm" x2="18.76169042607225mm" y1="145.5mm" y2="145.99442719099991mm" /><line stroke="black" stroke-width="1" x1="18.76169042607225mm" x2="18.534427190999917mm" y1="145.99442719099991mm" y2="146.44045640366795mm" /><line stroke="black" stroke-width="1" x1="18.534427190999917mm" x2="18.18045640366796mm" y1="146.44045640366795mm" y2="146.79442719099993mm" /><line stroke="black" stroke-width="1" x1="18.18045640366796mm" x2="17.734427190999916mm" y1="146.79442719099993mm" y2="147.02169042607224mm" /><line stroke="black" stroke-width="1" x1="17.734427190999916mm" x2="17.240000000000002mm" y1="147.02169042607224mm" y2="147.1mm" /><line stroke="black" stroke-width="1" x1="17.240000000000002mm" x2="16.745572809000087mm" y1="147.1mm" y2="147.02169042607224mm" /><line stroke="black" stroke-width="1" x1="16.745572809000087mm" x2="16.299543596332047mm" y1="147.02169042607224mm" y2="146.79442719099993mm" /><line stroke="black" stroke-width="1" x1="16.299543596332047mm" x2="15.945572809000087mm" y1="146.79442719099993mm" y2="146.44045640366795mm" /><line stroke="black" stroke-width="1" x1="15.945572809000087mm" x2="15.718309573927757mm" y1="146.44045640366795mm" y2="145.99442719099991mm" /><line stroke="black" stroke-width="1" x1="15.718309573927757mm" x2="15.640000000000002mm" y1="145.99442719099991mm" y2="145.5mm" /><line stroke="black" stroke-width="1" x1="15.640000000000002mm" x2="15.718309573927757mm" y1="145.5mm" y2="145.00557280900009mm" /><line stroke="black" stroke-width="1" x1="15.718309573927757mm" x2="15.945572809000087mm" y1="145.00557280900009mm" y2="144.55954359633205mm" /><line stroke="black" stroke-width="1" x1="15.945572809000087mm" x2="16.299543596332043mm" y1="144.55954359633205mm" y2="144.20557280900007mm" /><line stroke="black" stroke-width="1" x1="16.299543596332043mm" x2="16.745572809000087mm" y1="144.20557280900007mm" y2="143.97830957392776mm" /><line stroke="black" stroke-width="1" x1="16.745572809000087mm" x2="17.240000000000002mm" y1="143.97830957392776mm" y2="143.9mm" /><line stroke="black" stroke-width="1" x1="17.240000000000002mm" x2="17.734427190999916mm" y1="143.9mm" y2="143.97830957392776mm" /><line stroke="black" stroke-width="1" x1="17.734427190999916mm" x2="18.180456403667957mm" y1="143.97830957392776mm" y2="144.20557280900007mm" /><line stroke="black" stroke-width="1" x1="18.180456403667957mm" x2="18.534427190999917mm" y1="144.20557280900007mm" y2="144.55954359633205mm" /><line stroke="black" stroke-width="1" x1="18.534427190999917mm" x2="18.76169042607225mm" y1="144.55954359633205mm" y2="145.00557280900009mm" /><line stroke="black" stroke-width="1" x1="18.76169042607225mm" x2="18.840000000000003mm" y1="145.00557280900009mm" y2="145.5mm" /><line stroke="black" stroke-width="1" x1="5mm" x2="20.240000000000002mm" y1="20mm" y2="20mm" /><line stroke="black" stroke-width="1" x1="20.240000000000002mm" x2="20.240000000000002mm" y1="20mm" y2="148.5mm" /><line stroke="black" stroke-width="1" x1="20.240000000000002mm" x2="5mm" y1="148.5mm" y2="148.5mm" /><line stroke="black" stroke-width="1" x1="5mm" x2="5mm" y1="148.5mm" y2="20mm" /><line stroke="black" stroke-width="1" x1="15.620000000000001mm" x2="15.473169548885462mm" y1="44.3mm" y2="45.22705098312484mm" /><line stroke="black" stroke-width="1" x1="15.473169548885462mm" x2="15.047050983124844mm" y1="45.22705098312484mm" y2="46.063355756877414mm" /><line stroke="black" stroke-width="1" x1="15.047050983124844mm" x2="14.383355756877421mm" y1="46.063355756877414mm" y2="46.72705098312484mm" /><line stroke="black" stroke-width="1" x1="14.383355756877421mm" x2="13.547050983124844mm" y1="46.72705098312484mm" y2="47.15316954888546mm" /><line stroke="black" stroke-width="1" x1="13.547050983124844mm" x2="12.620000000000001mm" y1="47.15316954888546mm" y2="47.3mm" /><line stroke="black" stroke-width="1" x1="12.620000000000001mm" x2="11.69294901687516mm" y1="47.3mm" y2="47.15316954888546mm" /><line stroke="black" stroke-width="1" x1="11.69294901687516mm" x2="10.856644243122581mm" y1="47.15316954888546mm" y2="46.72705098312484mm" /><line stroke="black" stroke-width="1" x1="10.856644243122581mm" x2="10.19294901687516mm" y1="46.72705098312484mm" y2="46.063355756877414mm" /><line stroke="black" stroke-width="1" x1="10.19294901687516mm" x2="9.76683045111454mm" y1="46.063355756877414mm" y2="45.22705098312484mm" /><line stroke="black" stroke-width="1" x1="9.76683045111454mm" x2="9.620000000000001mm" y1="45.22705098312484mm" y2="44.3mm" /><line stroke="black" stroke-width="1" x1="9.620000000000001mm" x2="9.76683045111454mm" y1="44.3mm" y2="43.372949016875154mm" /><line stroke="black" stroke-width="1" x1="9.76683045111454mm" x2="10.192949016875158mm" y1="43.372949016875154mm" y2="42.53664424312258mm" /><line stroke="black" stroke-width="1" x1="10.192949016875158mm" x2="10.856644243122581mm" y1="42.53664424312258mm" y2="41.872949016875154mm" /><line stroke="black" stroke-width="1" x1="10.856644243122581mm" x2="11.692949016875158mm" y1="41.872949016875154mm" y2="41.446830451114536mm" /><line stroke="black" stroke-width="1" x1="11.692949016875158mm" x2="12.620000000000001mm" y1="41.446830451114536mm" y2="41.3mm" /><line stroke="black" stroke-width="1" x1="12.620000000000001mm" x2="13.547050983124842mm" y1="41.3mm" y2="41.446830451114536mm" /><line stroke="black" stroke-width="1" x1="13.547050983124842mm" x2="14.38335575687742mm" y1="41.446830451114536mm" y2="41.872949016875154mm" /><line stroke="black" stroke-width="1" x1="14.38335575687742mm" x2="15.047050983124842mm" y1="41.872949016875154mm" y2="42.53664424312258mm" /><line stroke="black" stroke-width="1" x1="15.047050983124842mm" x2="15.473169548885462mm" y1="42.53664424312258mm" y2="43.372949016875154mm" /><line stroke="black" stroke-width="1" x1="15.473169548885462mm" x2="15.620000000000001mm" y1="43.372949016875154mm" y2="44.3mm" /><line stroke="black" stroke-width="1" x1="15.620000000000001mm" x2="15.473169548885462mm" y1="56.0mm" y2="56.92705098312484mm" /><line stroke="black" stroke-width="1" x1="15.473169548885462mm" x2="15.047050983124844mm" y1="56.92705098312484mm" y2="57.76335575687742mm" /><line stroke="black" stroke-width="1" x1="15.047050983124844mm" x2="14.383355756877421mm" y1="57.76335575687742mm" y2="58.42705098312484mm" /><line stroke="black" stroke-width="1" x1="14.383355756877421mm" x2="13.547050983124844mm" y1="58.42705098312484mm" y2="58.85316954888546mm" /><line stroke="black" stroke-width="1" x1="13.547050983124844mm" x2="12.620000000000001mm" y1="58.85316954888546mm" y2="59.0mm" /><line stroke="black" stroke-width="1" x1="12.620000000000001mm" x2="11.69294901687516mm" y1="59.0mm" y2="58.85316954888546mm" /><line stroke="black" stroke-width="1" x1="11.69294901687516mm" x2="10.856644243122581mm" y1="58.85316954888546mm" y2="58.42705098312484mm" /><line stroke="black" stroke-width="1" x1="10.856644243122581mm" x2="10.19294901687516mm" y1="58.42705098312484mm" y2="57.76335575687742mm" /><line stroke="black" stroke-width="1" x1="10.19294901687516mm" x2="9.76683045111454mm" y1="57.76335575687742mm" y2="56.92705098312484mm" /><line stroke="black" stroke-width="1" x1="9.76683045111454mm" x2="9.620000000000001mm" y1="56.92705098312484mm" y2="56.0mm" /><line stroke="black" stroke-width="1" x1="9.620000000000001mm" x2="9.76683045111454mm" y1="56.0mm" y2="55.07294901687516mm" /><line stroke="black" stroke-width="1" x1="9.76683045111454mm" x2="10.192949016875158mm" y1="55.07294901687516mm" y2="54.23664424312258mm" /><line stroke="black" stroke-width="1" x1="10.192949016875158mm" x2="10.856644243122581mm" y1="54.23664424312258mm" y2="53.57294901687516mm" /><line stroke="black" stroke-width="1" x1="10.856644243122581mm" x2="11.692949016875158mm" y1="53.57294901687516mm" y2="53.14683045111454mm" /><line stroke="black" stroke-width="1" x1="11.692949016875158mm" x2="12.620000000000001mm" y1="53.14683045111454mm" y2="53.0mm" /><line stroke="black" stroke-width="1" x1="12.620000000000001mm" x2="13.547050983124842mm" y1="53.0mm" y2="53.14683045111454mm" /><line stroke="black" stroke-width="1" x1="13.547050983124842mm" x2="14.38335575687742mm" y1="53.14683045111454mm" y2="53.57294901687516mm" /><line stroke="black" stroke-width="1" x1="14.38335575687742mm" x2="15.047050983124842mm" y1="53.57294901687516mm" y2="54.23664424312258mm" /><line stroke="black" stroke-width="1" x1="15.047050983124842mm" x2="15.473169548885462mm" y1="54.23664424312258mm" y2="55.07294901687516mm" /><line stroke="black" stroke-width="1" x1="15.473169548885462mm" x2="15.620000000000001mm" y1="55.07294901687516mm" y2="56.0mm" /><line stroke="black" stroke-width="1" x1="15.620000000000001mm" x2="15.473169548885462mm" y1="67.7mm" y2="68.62705098312485mm" /><line stroke="black" stroke-width="1" x1="15.473169548885462mm" x2="15.047050983124844mm" y1="68.62705098312485mm" y2="69.46335575687742mm" /><line stroke="black" stroke-width="1" x1="15.047050983124844mm" x2="14.383355756877421mm" y1="69.46335575687742mm" y2="70.12705098312485mm" /><line stroke="black" stroke-width="1" x1="14.383355756877421mm" x2="13.547050983124844mm" y1="70.12705098312485mm" y2="70.55316954888546mm" /><line stroke="black" stroke-width="1" x1="13.547050983124844mm" x2="12.620000000000001mm" y1="70.55316954888546mm" y2="70.7mm" /><line stroke="black" stroke-width="1" x1="12.620000000000001mm" x2="11.69294901687516mm" y1="70.7mm" y2="70.55316954888546mm" /><line stroke="black" stroke-width="1" x1="11.69294901687516mm" x2="10.856644243122581mm" y1="70.55316954888546mm" y2="70.12705098312485mm" /><line stroke="black" stroke-width="1" x1="10.856644243122581mm" x2="10.19294901687516mm" y1="70.12705098312485mm" y2="69.46335575687742mm" /><line stroke="black" stroke-width="1" x1="10.19294901687516mm" x2="9.76683045111454mm" y1="69.46335575687742mm" y2="68.62705098312485mm" /><line stroke="black" stroke-width="1" x1="9.76683045111454mm" x2="9.620000000000001mm" y1="68.62705098312485mm" y2="67.7mm" /><line stroke="black" stroke-width="1" x1="9.620000000000001mm" x2="9.76683045111454mm" y1="67.7mm" y2="66.77294901687516mm" /><line stroke="black" stroke-width="1" x1="9.76683045111454mm" x2="10.192949016875158mm" y1="66.77294901687516mm" y2="65.93664424312259mm" /><line stroke="black" stroke-width="1" x1="10.192949016875158mm" x2="10.856644243122581mm" y1="65.93664424312259mm" y2="65.27294901687516mm" /><line stroke="black" stroke-width="1" x1="10.856644243122581mm" x2="11.692949016875158mm" y1="65.27294901687516mm" y2="64.84683045111454mm" /><line stroke="black" stroke-width="1" x1="11.692949016875158mm" x2="12.620000000000001mm" y1="64.84683045111454mm" y2="64.7mm" /><line stroke="black" stroke-width="1" x1="12.620000000000001mm" x2="13.547050983124842mm" y1="64.7mm" y2="64.84683045111454mm" /><line stroke="black" stroke-width="1" x1="13.547050983124842mm" x2="14.38335575687742mm" y1="64.84683045111454mm" y2="65.27294901687516mm" /><line stroke="black" stroke-width="1" x1="14.38335575687742mm" x2="15.047050983124842mm" y1="65.27294901687516mm" y2="65.93664424312259mm" /><line stroke="black" stroke-width="1" x1="15.047050983124842mm" x2="15.473169548885462mm" y1="65.93664424312259mm" y2="66.77294901687516mm" /><line stroke="black" stroke-width="1" x1="15.473169548885462mm" x2="15.620000000000001mm" y1="66.77294901687516mm" y2="67.7mm" /><line stroke="black" stroke-width="1" x1="9.830000000000002mm" x2="9.819721868421983mm" y1="77.0mm" y2="77.06489356881873mm" /><line stroke="black" stroke-width="1" x1="9.819721868421983mm" x2="9.78989356881874mm" y1="77.06489356881873mm" y2="77.12343490298142mm" /><line stroke="black" stroke-width="1" x1="9.78989356881874mm" x2="9.74343490298142mm" y1="77.12343490298142mm" y2="77.16989356881874mm" /><line stroke="black" stroke-width="1" x1="9.74343490298142mm" x2="9.68489356881874mm" y1="77.16989356881874mm" y2="77.19972186842199mm" /><line stroke="black" stroke-width="1" x1="9.68489356881874mm" x2="9.620000000000001mm" y1="77.19972186842199mm" y2="77.21mm" /><line stroke="black" stroke-width="1" x1="9.620000000000001mm" x2="9.555106431181262mm" y1="77.21mm" y2="77.19972186842199mm" /><line stroke="black" stroke-width="1" x1="9.555106431181262mm" x2="9.496565097018582mm" y1="77.19972186842199mm" y2="77.16989356881874mm" /><line stroke="black" stroke-width="1" x1="9.496565097018582mm" x2="9.450106431181261mm" y1="77.16989356881874mm" y2="77.12343490298142mm" /><line stroke="black" stroke-width="1" x1="9.450106431181261mm" x2="9.42027813157802mm" y1="77.12343490298142mm" y2="77.06489356881873mm" /><line stroke="black" stroke-width="1" x1="9.42027813157802mm" x2="9.41mm" y1="77.06489356881873mm" y2="77.0mm" /><line stroke="black" stroke-width="1" x1="9.41mm" x2="9.42027813157802mm" y1="77.0mm" y2="76.93510643118127mm" /><line stroke="black" stroke-width="1" x1="9.42027813157802mm" x2="9.450106431181261mm" y1="76.93510643118127mm" y2="76.87656509701858mm" /><line stroke="black" stroke-width="1" x1="9.450106431181261mm" x2="9.496565097018582mm" y1="76.87656509701858mm" y2="76.83010643118126mm" /><line stroke="black" stroke-width="1" x1="9.496565097018582mm" x2="9.555106431181262mm" y1="76.83010643118126mm" y2="76.80027813157801mm" /><line stroke="black" stroke-width="1" x1="9.555106431181262mm" x2="9.620000000000001mm" y1="76.80027813157801mm" y2="76.79mm" /><line stroke="black" stroke-width="1" x1="9.620000000000001mm" x2="9.68489356881874mm" y1="76.79mm" y2="76.80027813157801mm" /><line stroke="black" stroke-width="1" x1="9.68489356881874mm" x2="9.74343490298142mm" y1="76.80027813157801mm" y2="76.83010643118126mm" /><line stroke="black" stroke-width="1" x1="9.74343490298142mm" x2="9.78989356881874mm" y1="76.83010643118126mm" y2="76.87656509701858mm" /><line stroke="black" stroke-width="1" x1="9.78989356881874mm" x2="9.819721868421983mm" y1="76.87656509701858mm" y2="76.93510643118127mm" /><line stroke="black" stroke-width="1" x1="9.819721868421983mm" x2="9.830000000000002mm" y1="76.93510643118127mm" y2="77.0mm" /><line stroke="black" stroke-width="1" x1="15.830000000000002mm" x2="15.819721868421983mm" y1="77.0mm" y2="77.06489356881873mm" /><line stroke="black" stroke-width="1" x1="15.819721868421983mm" x2="15.78989356881874mm" y1="77.06489356881873mm" y2="77.12343490298142mm" /><line stroke="black" stroke-width="1" x1="15.78989356881874mm" x2="15.74343490298142mm" y1="77.12343490298142mm" y2="77.16989356881874mm" /><line stroke="black" stroke-width="1" x1="15.74343490298142mm" x2="15.68489356881874mm" y1="77.16989356881874mm" y2="77.19972186842199mm" /><line stroke="black" stroke-width="1" x1="15.68489356881874mm" x2="15.620000000000001mm" y1="77.19972186842199mm" y2="77.21mm" /><line stroke="black" stroke-width="1" x1="15.620000000000001mm" x2="15.555106431181262mm" y1="77.21mm" y2="77.19972186842199mm" /><line stroke="black" stroke-width="1" x1="15.555106431181262mm" x2="15.496565097018582mm" y1="77.19972186842199mm" y2="77.16989356881874mm" /><line stroke="black" stroke-width="1" x1="15.496565097018582mm" x2="15.450106431181261mm" y1="77.16989356881874mm" y2="77.12343490298142mm" /><line stroke="black" stroke-width="1" x1="15.450106431181261mm" x2="15.42027813157802mm" y1="77.12343490298142mm" y2="77.06489356881873mm" /><line stroke="black" stroke-width="1" x1="15.42027813157802mm" x2="15.41mm" y1="77.06489356881873mm" y2="77.0mm" /><line stroke="black" stroke-width="1" x1="15.41mm" x2="15.42027813157802mm" y1="77.0mm" y2="76.93510643118127mm" /><line stroke="black" stroke-width="1" x1="15.42027813157802mm" x2="15.450106431181261mm" y1="76.93510643118127mm" y2="76.87656509701858mm" /><line stroke="black" stroke-width="1" x1="15.450106431181261mm" x2="15.496565097018582mm" y1="76.87656509701858mm" y2="76.83010643118126mm" /><line stroke="black" stroke-width="1" x1="15.496565097018582mm" x2="15.555106431181262mm" y1="76.83010643118126mm" y2="76.80027813157801mm" /><line stroke="black" stroke-width="1" x1="15.555106431181262mm" x2="15.620000000000001mm" y1="76.80027813157801mm" y2="76.79mm" /><line stroke="black" stroke-width="1" x1="15.620000000000001mm" x2="15.68489356881874mm" y1="76.79mm" y2="76.80027813157801mm" /><line stroke="black" stroke-width="1" x1="15.68489356881874mm" x2="15.74343490298142mm" y1="76.80027813157801mm" y2="76.83010643118126mm" /><line stroke="black" stroke-width="1" x1="15.74343490298142mm" x2="15.78989356881874mm" y1="76.83010643118126mm" y2="76.87656509701858mm" /><line stroke="black" stroke-width="1" x1="15.78989356881874mm" x2="15.819721868421983mm" y1="76.87656509701858mm" y2="76.93510643118127mm" /><line stroke="black" stroke-width="1" x1="15.819721868421983mm" x2="15.830000000000002mm" y1="76.93510643118127mm" y2="77.0mm" /><line stroke="black" stroke-width="1" x1="9.830000000000002mm" x2="9.819721868421983mm" y1="80.0mm" y2="80.06489356881873mm" /><line stroke="black" stroke-width="1" x1="9.819721868421983mm" x2="9.78989356881874mm" y1="80.06489356881873mm" y2="80.12343490298142mm" /><line stroke="black" stroke-width="1" x1="9.78989356881874mm" x2="9.74343490298142mm" y1="80.12343490298142mm" y2="80.16989356881874mm" /><line stroke="black" stroke-width="1" x1="9.74343490298142mm" x2="9.68489356881874mm" y1="80.16989356881874mm" y2="80.19972186842199mm" /><line stroke="black" stroke-width="1" x1="9.68489356881874mm" x2="9.620000000000001mm" y1="80.19972186842199mm" y2="80.21mm" /><line stroke="black" stroke-width="1" x1="9.620000000000001mm" x2="9.555106431181262mm" y1="80.21mm" y2="80.19972186842199mm" /><line stroke="black" stroke-width="1" x1="9.555106431181262mm" x2="9.496565097018582mm" y1="80.19972186842199mm" y2="80.16989356881874mm" /><line stroke="black" stroke-width="1" x1="9.496565097018582mm" x2="9.450106431181261mm" y1="80.16989356881874mm" y2="80.12343490298142mm" /><line stroke="black" stroke-width="1" x1="9.450106431181261mm" x2="9.42027813157802mm" y1="80.12343490298142mm" y2="80.06489356881873mm" /><line stroke="black" stroke-width="1" x1="9.42027813157802mm" x2="9.41mm" y1="80.06489356881873mm" y2="80.0mm" /><line stroke="black" stroke-width="1" x1="9.41mm" x2="9.42027813157802mm" y1="80.0mm" y2="79.93510643118127mm" /><line stroke="black" stroke-width="1" x1="9.42027813157802mm" x2="9.450106431181261mm" y1="79.93510643118127mm" y2="79.87656509701858mm" /><line stroke="black" stroke-width="1" x1="9.450106431181261mm" x2="9.496565097018582mm" y1="79.87656509701858mm" y2="79.83010643118126mm" /><line stroke="black" stroke-width="1" x1="9.496565097018582mm" x2="9.555106431181262mm" y1="79.83010643118126mm" y2="79.80027813157801mm" /><line stroke="black" stroke-width="1" x1="9.555106431181262mm" x2="9.620000000000001mm" y1="79.80027813157801mm" y2="79.79mm" /><line stroke="black" stroke-width="1" x1="9.620000000000001mm" x2="9.68489356881874mm" y1="79.79mm" y2="79.80027813157801mm" /><line stroke="black" stroke-width="1" x1="9.68489356881874mm" x2="9.74343490298142mm" y1="79.80027813157801mm" y2="79.83010643118126mm" /><line stroke="black" stroke-width="1" x1="9.74343490298142mm" x2="9.78989356881874mm" y1="79.83010643118126mm" y2="79.87656509701858mm" /><line stroke="black" stroke-width="1" x1="9.78989356881874mm" x2="9.819721868421983mm" y1="79.87656509701858mm" y2="79.93510643118127mm" /><line stroke="black" stroke-width="1" x1="9.819721868421983mm" x2="9.830000000000002mm" y1="79.93510643118127mm" y2="80.0mm" /><line stroke="black" stroke-width="1" x1="15.830000000000002mm" x2="15.819721868421983mm" y1="80.0mm" y2="80.06489356881873mm" /><line stroke="black" stroke-width="1" x1="15.819721868421983mm" x2="15.78989356881874mm" y1="80.06489356881873mm" y2="80.12343490298142mm" /><line stroke="black" stroke-width="1" x1="15.78989356881874mm" x2="15.74343490298142mm" y1="80.12343490298142mm" y2="80.16989356881874mm" /><line stroke="black" stroke-width="1" x1="15.74343490298142mm" x2="15.68489356881874mm" y1="80.16989356881874mm" y2="80.19972186842199mm" /><line stroke="black" stroke-width="1" x1="15.68489356881874mm" x2="15.620000000000001mm" y1="80.19972186842199mm" y2="80.21mm" /><line stroke="black" stroke-width="1" x1="15.620000000000001mm" x2="15.555106431181262mm" y1="80.21mm" y2="80.19972186842199mm" /><line stroke="black" stroke-width="1" x1="15.555106431181262mm" x2="15.496565097018582mm" y1="80.19972186842199mm" y2="80.16989356881874mm" /><line stroke="black" stroke-width="1" x1="15.496565097018582mm" x2="15.450106431181261mm" y1="80.16989356881874mm" y2="80.12343490298142mm" /><line stroke="black" stroke-width="1" x1="15.450106431181261mm" x2="15.42027813157802mm" y1="80.12343490298142mm" y2="80.06489356881873mm" /><line stroke="black" stroke-width="1" x1="15.42027813157802mm" x2="15.41mm" y1="80.06489356881873mm" y2="80.0mm" /><line stroke="black" stroke-width="1" x1="15.41mm" x2="15.42027813157802mm" y1="80.0mm" y2="79.93510643118127mm" /><line stroke="black" stroke-width="1" x1="15.42027813157802mm" x2="15.450106431181261mm" y1="79.93510643118127mm" y2="79.87656509701858mm" /><line stroke="black" stroke-width="1" x1="15.450106431181261mm" x2="15.496565097018582mm" y1="79.87656509701858mm" y2="79.83010643118126mm" /><line stroke="black" stroke-width="1" x1="15.496565097018582mm" x2="15.555106431181262mm" y1="79.83010643118126mm" y2="79.80027813157801mm" /><line stroke="black" stroke-width="1" x1="15.555106431181262mm" x2="15.620000000000001mm" y1="79.80027813157801mm" y2="79.79mm" /><line stroke="black" stroke-width="1" x1="15.620000000000001mm" x2="15.68489356881874mm" y1="79.79mm" y2="79.80027813157801mm" /><line stroke="black" stroke-width="1" x1="15.68489356881874mm" x2="15.74343490298142mm" y1="79.80027813157801mm" y2="79.83010643118126mm" /><line stroke="black" stroke-width="1" x1="15.74343490298142mm" x2="15.78989356881874mm" y1="79.83010643118126mm" y2="79.87656509701858mm" /><line stroke="black" stroke-width="1" x1="15.78989356881874mm" x2="15.819721868421983mm" y1="79.87656509701858mm" y2="79.93510643118127mm" /><line stroke="black" stroke-width="1" x1="15.819721868421983mm" x2="15.830000000000002mm" y1="79.93510643118127mm" y2="80.0mm" /><line stroke="black" stroke-width="1" x1="14.97mm" x2="14.854982813293612mm" y1="90.0mm" y2="90.72618993678113mm" /><line stroke="black" stroke-width="1" x1="14.854982813293612mm" x2="14.521189936781127mm" y1="90.72618993678113mm" y2="91.38129534288731mm" /><line stroke="black" stroke-width="1" x1="14.521189936781127mm" x2="14.001295342887312mm" y1="91.38129534288731mm" y2="91.90118993678112mm" /><line stroke="black" stroke-width="1" x1="14.001295342887312mm" x2="13.346189936781128mm" y1="91.90118993678112mm" y2="92.23498281329361mm" /><line stroke="black" stroke-width="1" x1="13.346189936781128mm" x2="12.620000000000001mm" y1="92.23498281329361mm" y2="92.35mm" /><line stroke="black" stroke-width="1" x1="12.620000000000001mm" x2="11.893810063218874mm" y1="92.35mm" y2="92.23498281329361mm" /><line stroke="black" stroke-width="1" x1="11.893810063218874mm" x2="11.23870465711269mm" y1="92.23498281329361mm" y2="91.90118993678112mm" /><line stroke="black" stroke-width="1" x1="11.23870465711269mm" x2="10.718810063218875mm" y1="91.90118993678112mm" y2="91.38129534288731mm" /><line stroke="black" stroke-width="1" x1="10.718810063218875mm" x2="10.38501718670639mm" y1="91.38129534288731mm" y2="90.72618993678113mm" /><line stroke="black" stroke-width="1" x1="10.38501718670639mm" x2="10.270000000000001mm" y1="90.72618993678113mm" y2="90.0mm" /><line stroke="black" stroke-width="1" x1="10.270000000000001mm" x2="10.38501718670639mm" y1="90.0mm" y2="89.27381006321887mm" /><line stroke="black" stroke-width="1" x1="10.38501718670639mm" x2="10.718810063218875mm" y1="89.27381006321887mm" y2="88.61870465711269mm" /><line stroke="black" stroke-width="1" x1="10.718810063218875mm" x2="11.238704657112688mm" y1="88.61870465711269mm" y2="88.09881006321888mm" /><line stroke="black" stroke-width="1" x1="11.238704657112688mm" x2="11.893810063218874mm" y1="88.09881006321888mm" y2="87.76501718670639mm" /><line stroke="black" stroke-width="1" x1="11.893810063218874mm" x2="12.620000000000001mm" y1="87.76501718670639mm" y2="87.65mm" /><line stroke="black" stroke-width="1" x1="12.620000000000001mm" x2="13.346189936781126mm" y1="87.65mm" y2="87.76501718670639mm" /><line stroke="black" stroke-width="1" x1="13.346189936781126mm" x2="14.001295342887312mm" y1="87.76501718670639mm" y2="88.09881006321888mm" /><line stroke="black" stroke-width="1" x1="14.001295342887312mm" x2="14.521189936781127mm" y1="88.09881006321888mm" y2="88.61870465711269mm" /><line stroke="black" stroke-width="1" x1="14.521189936781127mm" x2="14.854982813293612mm" y1="88.61870465711269mm" y2="89.27381006321887mm" /><line stroke="black" stroke-width="1" x1="14.854982813293612mm" x2="14.97mm" y1="89.27381006321887mm" y2="90.0mm" /><line stroke="black" stroke-width="1" x1="17.93mm" x2="17.85658477444273mm" y1="34.3mm" y2="34.76352549156242mm" /><line stroke="black" stroke-width="1" x1="17.85658477444273mm" x2="17.64352549156242mm" y1="34.76352549156242mm" y2="35.181677878438705mm" /><line stroke="black" stroke-width="1" x1="17.64352549156242mm" x2="17.311677878438708mm" y1="35.181677878438705mm" y2="35.51352549156242mm" /><line stroke="black" stroke-width="1" x1="17.311677878438708mm" x2="16.89352549156242mm" y1="35.51352549156242mm" y2="35.72658477444273mm" /><line stroke="black" stroke-width="1" x1="16.89352549156242mm" x2="16.43mm" y1="35.72658477444273mm" y2="35.8mm" /><line stroke="black" stroke-width="1" x1="16.43mm" x2="15.966474508437578mm" y1="35.8mm" y2="35.72658477444273mm" /><line stroke="black" stroke-width="1" x1="15.966474508437578mm" x2="15.54832212156129mm" y1="35.72658477444273mm" y2="35.51352549156242mm" /><line stroke="black" stroke-width="1" x1="15.54832212156129mm" x2="15.216474508437578mm" y1="35.51352549156242mm" y2="35.181677878438705mm" /><line stroke="black" stroke-width="1" x1="15.216474508437578mm" x2="15.00341522555727mm" y1="35.181677878438705mm" y2="34.76352549156242mm" /><line stroke="black" stroke-width="1" x1="15.00341522555727mm" x2="14.93mm" y1="34.76352549156242mm" y2="34.3mm" /><line stroke="black" stroke-width="1" x1="14.93mm" x2="15.00341522555727mm" y1="34.3mm" y2="33.836474508437576mm" /><line stroke="black" stroke-width="1" x1="15.00341522555727mm" x2="15.216474508437578mm" y1="33.836474508437576mm" y2="33.41832212156129mm" /><line stroke="black" stroke-width="1" x1="15.216474508437578mm" x2="15.54832212156129mm" y1="33.41832212156129mm" y2="33.086474508437576mm" /><line stroke="black" stroke-width="1" x1="15.54832212156129mm" x2="15.966474508437578mm" y1="33.086474508437576mm" y2="32.87341522555727mm" /><line stroke="black" stroke-width="1" x1="15.966474508437578mm" x2="16.43mm" y1="32.87341522555727mm" y2="32.8mm" /><line stroke="black" stroke-width="1" x1="16.43mm" x2="16.89352549156242mm" y1="32.8mm" y2="32.87341522555727mm" /><line stroke="black" stroke-width="1" x1="16.89352549156242mm" x2="17.311677878438708mm" y1="32.87341522555727mm" y2="33.086474508437576mm" /><line stroke="black" stroke-width="1" x1="17.311677878438708mm" x2="17.64352549156242mm" y1="33.086474508437576mm" y2="33.41832212156129mm" /><line stroke="black" stroke-width="1" x1="17.64352549156242mm" x2="17.85658477444273mm" y1="33.41832212156129mm" y2="33.836474508437576mm" /><line stroke="black" stroke-width="1" x1="17.85658477444273mm" x2="17.93mm" y1="33.836474508437576mm" y2="34.3mm" /><line stroke="black" stroke-width="1" x1="12.830000000000002mm" x2="12.819721868421983mm" y1="34.3mm" y2="34.36489356881874mm" /><line stroke="black" stroke-width="1" x1="12.819721868421983mm" x2="12.78989356881874mm" y1="34.36489356881874mm" y2="34.42343490298142mm" /><line stroke="black" stroke-width="1" x1="12.78989356881874mm" x2="12.74343490298142mm" y1="34.42343490298142mm" y2="34.46989356881873mm" /><line stroke="black" stroke-width="1" x1="12.74343490298142mm" x2="12.68489356881874mm" y1="34.46989356881873mm" y2="34.49972186842198mm" /><line stroke="black" stroke-width="1" x1="12.68489356881874mm" x2="12.620000000000001mm" y1="34.49972186842198mm" y2="34.51mm" /><line stroke="black" stroke-width="1" x1="12.620000000000001mm" x2="12.555106431181262mm" y1="34.51mm" y2="34.49972186842198mm" /><line stroke="black" stroke-width="1" x1="12.555106431181262mm" x2="12.496565097018582mm" y1="34.49972186842198mm" y2="34.46989356881873mm" /><line stroke="black" stroke-width="1" x1="12.496565097018582mm" x2="12.450106431181261mm" y1="34.46989356881873mm" y2="34.42343490298142mm" /><line stroke="black" stroke-width="1" x1="12.450106431181261mm" x2="12.42027813157802mm" y1="34.42343490298142mm" y2="34.36489356881874mm" /><line stroke="black" stroke-width="1" x1="12.42027813157802mm" x2="12.41mm" y1="34.36489356881874mm" y2="34.3mm" /><line stroke="black" stroke-width="1" x1="12.41mm" x2="12.42027813157802mm" y1="34.3mm" y2="34.23510643118126mm" /><line stroke="black" stroke-width="1" x1="12.42027813157802mm" x2="12.450106431181261mm" y1="34.23510643118126mm" y2="34.176565097018575mm" /><line stroke="black" stroke-width="1" x1="12.450106431181261mm" x2="12.496565097018582mm" y1="34.176565097018575mm" y2="34.13010643118126mm" /><line stroke="black" stroke-width="1" x1="12.496565097018582mm" x2="12.555106431181262mm" y1="34.13010643118126mm" y2="34.100278131578015mm" /><line stroke="black" stroke-width="1" x1="12.555106431181262mm" x2="12.620000000000001mm" y1="34.100278131578015mm" y2="34.089999999999996mm" /><line stroke="black" stroke-width="1" x1="12.620000000000001mm" x2="12.68489356881874mm" y1="34.089999999999996mm" y2="34.100278131578015mm" /><line stroke="black" stroke-width="1" x1="12.68489356881874mm" x2="12.74343490298142mm" y1="34.100278131578015mm" y2="34.13010643118126mm" /><line stroke="black" stroke-width="1" x1="12.74343490298142mm" x2="12.78989356881874mm" y1="34.13010643118126mm" y2="34.176565097018575mm" /><line stroke="black" stroke-width="1" x1="12.78989356881874mm" x2="12.819721868421983mm" y1="34.176565097018575mm" y2="34.23510643118126mm" /><line stroke="black" stroke-width="1" x1="12.819721868421983mm" x2="12.830000000000002mm" y1="34.23510643118126mm" y2="34.3mm" /><line stroke="black" stroke-width="1" x1="8.258000000000001mm" x2="8.247721868421982mm" y1="37.3mm" y2="37.36489356881874mm" /><line stroke="black" stroke-width="1" x1="8.247721868421982mm" x2="8.21789356881874mm" y1="37.36489356881874mm" y2="37.42343490298142mm" /><line stroke="black" stroke-width="1" x1="8.21789356881874mm" x2="8.171434902981419mm" y1="37.42343490298142mm" y2="37.46989356881873mm" /><line stroke="black" stroke-width="1" x1="8.171434902981419mm" x2="8.11289356881874mm" y1="37.46989356881873mm" y2="37.49972186842198mm" /><line stroke="black" stroke-width="1" x1="8.11289356881874mm" x2="8.048mm" y1="37.49972186842198mm" y2="37.51mm" /><line stroke="black" stroke-width="1" x1="8.048mm" x2="7.983106431181261mm" y1="37.51mm" y2="37.49972186842198mm" /><line stroke="black" stroke-width="1" x1="7.983106431181261mm" x2="7.924565097018581mm" y1="37.49972186842198mm" y2="37.46989356881873mm" /><line stroke="black" stroke-width="1" x1="7.924565097018581mm" x2="7.878106431181261mm" y1="37.46989356881873mm" y2="37.42343490298142mm" /><line stroke="black" stroke-width="1" x1="7.878106431181261mm" x2="7.8482781315780175mm" y1="37.42343490298142mm" y2="37.36489356881874mm" /><line stroke="black" stroke-width="1" x1="7.8482781315780175mm" x2="7.838mm" y1="37.36489356881874mm" y2="37.3mm" /><line stroke="black" stroke-width="1" x1="7.838mm" x2="7.8482781315780175mm" y1="37.3mm" y2="37.23510643118126mm" /><line stroke="black" stroke-width="1" x1="7.8482781315780175mm" x2="7.878106431181261mm" y1="37.23510643118126mm" y2="37.176565097018575mm" /><line stroke="black" stroke-width="1" x1="7.878106431181261mm" x2="7.924565097018581mm" y1="37.176565097018575mm" y2="37.13010643118126mm" /><line stroke="black" stroke-width="1" x1="7.924565097018581mm" x2="7.983106431181261mm" y1="37.13010643118126mm" y2="37.100278131578015mm" /><line stroke="black" stroke-width="1" x1="7.983106431181261mm" x2="8.048mm" y1="37.100278131578015mm" y2="37.089999999999996mm" /><line stroke="black" stroke-width="1" x1="8.048mm" x2="8.11289356881874mm" y1="37.089999999999996mm" y2="37.100278131578015mm" /><line stroke="black" stroke-width="1" x1="8.11289356881874mm" x2="8.171434902981419mm" y1="37.100278131578015mm" y2="37.13010643118126mm" /><line stroke="black" stroke-width="1" x1="8.171434902981419mm" x2="8.21789356881874mm" y1="37.13010643118126mm" y2="37.176565097018575mm" /><line stroke="black" stroke-width="1" x1="8.21789356881874mm" x2="8.247721868421982mm" y1="37.176565097018575mm" y2="37.23510643118126mm" /><line stroke="black" stroke-width="1" x1="8.247721868421982mm" x2="8.258000000000001mm" y1="37.23510643118126mm" y2="37.3mm" /></svg>